<svg width="649.5311767578124px" height="122.021240234375px" xmlns="http://www.w3.org/2000/svg" viewBox="-74.76558837890622 13.9893798828125 649.5311767578124 122.021240234375" style="background: rgba(0, 0, 0, 0);" preserveAspectRatio="xMidYMid"><defs><filter id="editing-hole" x="-100%" y="-100%" width="300%" height="300%"><feFlood flood-color="#000" result="black"></feFlood><feMorphology operator="dilate" radius="2" in="SourceGraphic" result="erode"></feMorphology><feGaussianBlur in="erode" stdDeviation="4" result="blur"></feGaussianBlur><feOffset in="blur" dx="2" dy="2" result="offset"></feOffset><feComposite operator="atop" in="offset" in2="black" result="merge"></feComposite><feComposite operator="in" in="merge" in2="SourceGraphic" result="inner-shadow"></feComposite></filter></defs><g filter="url(#editing-hole)"><g transform="translate(19.169689923524857, 97.45718765258789)"><path d="M0.45-0.32L0.45-0.32L8.51-42.24L8.51-42.24Q16.06-42.88 20.93-42.88L20.93-42.88L20.93-42.88Q25.79-42.88 28.93-42.46L28.93-42.46L28.93-42.46Q32.06-42.05 34.18-40.96L34.18-40.96L34.18-40.96Q38.40-38.91 38.40-33.28L38.40-33.28L38.40-33.28Q38.40-30.02 35.58-27.26L35.58-27.26L35.58-27.26Q32.96-24.77 30.08-24.19L30.08-24.19L30.08-24.19Q33.15-23.68 35.33-21.38L35.33-21.38L35.33-21.38Q37.63-18.94 37.63-15.17L37.63-15.17L37.63-15.17Q37.63-7.87 32.19-3.62L32.19-3.62L32.19-3.62Q26.75 0.64 16.06 0.64L16.06 0.64L16.06 0.64Q8.70 0.64 0.45-0.32ZM17.86-20.61L14.66-4.03L14.66-4.03Q15.23-3.97 15.36-3.97L15.36-3.97L15.94-3.97L15.94-3.97Q21.18-3.97 23.42-7.42L23.42-7.42L23.42-7.42Q25.09-10.11 25.09-15.04L25.09-15.04L25.09-15.04Q25.09-17.66 23.39-19.07L23.39-19.07L23.39-19.07Q21.70-20.48 17.86-20.61L17.86-20.61ZM27.58-33.22L27.58-33.22L27.58-33.22Q27.58-38.53 22.46-38.53L22.46-38.53L21.89-38.53L21.89-38.53Q21.63-38.53 21.25-38.46L21.25-38.46L18.69-24.96L19.33-24.96L19.33-24.96Q27.58-25.15 27.58-33.22ZM62.40-2.69L62.40-2.69L62.40-2.69Q59.33 1.28 51.71 1.28L51.71 1.28L51.71 1.28Q47.74 1.28 44.86-1.12L44.86-1.12L44.86-1.12Q41.98-3.52 41.98-6.98L41.98-6.98L41.98-6.98Q41.98-8.90 42.18-9.86L42.18-9.86L46.46-32.64L59.46-33.92L54.78-9.22L54.78-9.22Q54.53-7.81 54.53-6.98L54.53-6.98L54.53-6.98Q54.53-3.26 56.77-3.26L56.77-3.26L56.77-3.26Q59.26-3.26 61.06-6.66L61.06-6.66L61.06-6.66Q61.63-7.74 61.89-9.15L61.89-9.15L66.43-32.64L79.04-33.92L74.30-8.96L74.30-8.96Q74.11-8 74.11-6.98L74.11-6.98L74.11-6.98Q74.11-5.95 74.69-4.83L74.69-4.83L74.69-4.83Q75.26-3.71 77.12-3.46L77.12-3.46L77.12-3.46Q76.74-1.92 75.39-0.90L75.39-0.90L75.39-0.90Q72.58 1.28 69.54 1.28L69.54 1.28L69.54 1.28Q66.50 1.28 64.70 0.19L64.70 0.19L64.70 0.19Q62.91-0.90 62.40-2.69ZM83.52-6.40L83.52-6.40L83.52-6.40Q83.52-8.13 84.42-12.48L84.42-12.48L87.81-29.76L84.03-29.76L84.29-31.68L84.29-31.68Q91.97-33.98 99.39-39.62L99.39-39.62L102.46-39.62L100.93-32.64L105.92-32.64L105.34-29.76L100.42-29.76L97.15-12.48L97.15-12.48Q96.32-8.51 96.32-7.17L96.32-7.17L96.32-7.17Q96.32-4.10 99.01-3.46L99.01-3.46L99.01-3.46Q98.37-1.28 96.06 0L96.06 0L96.06 0Q93.76 1.28 90.50 1.28L90.50 1.28L90.50 1.28Q87.23 1.28 85.38-0.77L85.38-0.77L85.38-0.77Q83.52-2.82 83.52-6.40ZM106.62-6.40L106.62-6.40L106.62-6.40Q106.62-8.13 107.52-12.48L107.52-12.48L110.91-29.76L107.14-29.76L107.39-31.68L107.39-31.68Q115.07-33.98 122.50-39.62L122.50-39.62L125.57-39.62L124.03-32.64L129.02-32.64L128.45-29.76L123.52-29.76L120.26-12.48L120.26-12.48Q119.42-8.51 119.42-7.17L119.42-7.17L119.42-7.17Q119.42-4.10 122.11-3.46L122.11-3.46L122.11-3.46Q121.47-1.28 119.17 0L119.17 0L119.17 0Q116.86 1.28 113.60 1.28L113.60 1.28L113.60 1.28Q110.34 1.28 108.48-0.77L108.48-0.77L108.48-0.77Q106.62-2.82 106.62-6.40ZM142.40 1.28L142.40 1.28L142.40 1.28Q128.32 1.28 128.32-11.97L128.32-11.97L128.32-11.97Q128.32-21.38 133.50-27.46L133.50-27.46L133.50-27.46Q139.01-33.92 148.54-33.92L148.54-33.92L148.54-33.92Q155.46-33.92 158.98-30.72L158.98-30.72L158.98-30.72Q162.50-27.52 162.50-20.80L162.50-20.80L162.50-20.80Q162.50-10.56 156.99-4.61L156.99-4.61L156.99-4.61Q151.62 1.28 142.40 1.28ZM144.06-26.56L144.06-26.56L144.06-26.56Q143.30-24.83 142.69-22.24L142.69-22.24L142.69-22.24Q142.08-19.65 141.31-15.55L141.31-15.55L141.31-15.55Q140.54-11.46 140.54-6.40L140.54-6.40L140.54-6.40Q140.54-4.74 141.09-3.65L141.09-3.65L141.09-3.65Q141.63-2.56 143.10-2.56L143.10-2.56L143.10-2.56Q144.58-2.56 145.50-3.26L145.50-3.26L145.50-3.26Q146.43-3.97 147.14-5.63L147.14-5.63L147.14-5.63Q148.42-8.58 149.44-14.05L149.44-14.05L149.44-14.05Q150.46-19.52 150.56-21.89L150.56-21.89L150.56-21.89Q150.66-24.26 150.66-26.02L150.66-26.02L150.66-26.02Q150.66-27.78 150.14-28.93L150.14-28.93L150.14-28.93Q149.63-30.08 148.19-30.08L148.19-30.08L148.19-30.08Q146.75-30.08 145.79-29.18L145.79-29.18L145.79-29.18Q144.83-28.29 144.06-26.56ZM193.34 1.28L193.34 1.28L193.34 1.28Q185.60 1.28 185.60-4.74L185.60-4.74L185.60-4.74Q185.66-6.40 186.18-9.22L186.18-9.22L187.33-15.10L187.33-15.10Q189.06-23.42 189.06-25.28L189.06-25.28L189.06-25.28Q189.06-28.99 186.88-28.99L186.88-28.99L186.88-28.99Q183.23-28.99 181.31-19.46L181.31-19.46L177.54 0L164.67 1.28L171.33-32.70L181.82-33.92L180.80-27.65L180.80-27.65Q183.81-33.92 193.02-33.92L193.02-33.92L193.02-33.92Q197.50-33.92 199.39-32.03L199.39-32.03L199.39-32.03Q201.28-30.14 201.28-25.92L201.28-25.92L201.28-25.92Q201.28-21.95 199.23-12.67L199.23-12.67L199.23-12.67Q198.27-8.51 198.27-6.94L198.27-6.94L198.27-6.94Q198.27-5.38 199.14-4.48L199.14-4.48L199.14-4.48Q200-3.58 201.28-3.46L201.28-3.46L201.28-3.46Q200.64-1.28 198.43 0L198.43 0L198.43 0Q196.22 1.28 193.34 1.28ZM224.70-31.17L224.70-31.17L224.70-31.17Q222.53-32.83 222.53-36.38L222.53-36.38L222.53-36.38Q222.53-39.94 224.86-41.79L224.86-41.79L224.86-41.79Q227.20-43.65 231.23-43.65L231.23-43.65L231.23-43.65Q233.79-43.65 239.87-42.75L239.87-42.75L244.22-42.11L244.22-42.11Q246.40-41.86 248.67-41.86L248.67-41.86L248.67-41.86Q250.94-41.86 252.48-42.82L252.48-42.82L252.48-42.82Q254.78-40.77 254.78-37.82L254.78-37.82L254.78-37.82Q254.78-34.88 252.16-32.77L252.16-32.77L252.16-32.77Q249.47-30.53 246.02-30.53L246.02-30.53L246.02-30.53Q244.35-30.53 241.66-30.98L241.66-30.98L241.66-30.98Q238.53-21.12 238.53-14.27L238.53-14.27L238.53-14.27Q238.53-7.42 241.98-3.84L241.98-3.84L241.98-3.84Q240.38-0.96 238.02 0.16L238.02 0.16L238.02 0.16Q235.65 1.28 232.10 1.28L232.10 1.28L232.10 1.28Q228.54 1.28 226.34-0.67L226.34-0.67L226.34-0.67Q224.13-2.62 224.13-6.66L224.13-6.66L224.13-6.66Q224.13-11.33 226.69-19.01L226.69-19.01L226.69-19.01Q229.25-26.62 233.09-32.45L233.09-32.45L233.09-32.45Q231.23-32.64 229.31-32.64L229.31-32.64L229.31-32.64Q225.34-32.64 224.70-31.17ZM275.71-10.82L275.71-10.82L275.71-10.82Q277.31-9.73 277.31-7.33L277.31-7.33L277.31-7.33Q277.31-4.93 276.10-3.39L276.10-3.39L276.10-3.39Q274.88-1.86 272.90-0.83L272.90-0.83L272.90-0.83Q268.80 1.28 264.38 1.28L264.38 1.28L264.38 1.28Q259.97 1.28 257.38 0.32L257.38 0.32L257.38 0.32Q254.78-0.64 253.06-2.43L253.06-2.43L253.06-2.43Q249.66-5.82 249.66-12.03L249.66-12.03L249.66-12.03Q249.66-21.70 254.91-27.58L254.91-27.58L254.91-27.58Q260.54-33.92 270.34-33.92L270.34-33.92L270.34-33.92Q276.42-33.92 279.42-31.36L279.42-31.36L279.42-31.36Q281.66-29.44 281.66-26.30L281.66-26.30L281.66-26.30Q281.66-15.04 262.21-15.04L262.21-15.04L262.21-15.04Q261.95-13.38 261.95-11.97L261.95-11.97L261.95-11.97Q261.95-9.02 263.26-7.90L263.26-7.90L263.26-7.90Q264.58-6.78 267.01-6.78L267.01-6.78L267.01-6.78Q269.44-6.78 272.03-7.90L272.03-7.90L272.03-7.90Q274.62-9.02 275.71-10.82ZM262.66-17.79L262.66-17.79L262.66-17.79Q267.20-17.79 269.82-20.61L269.82-20.61L269.82-20.61Q272.45-23.30 272.45-27.58L272.45-27.58L272.45-27.58Q272.45-29.06 271.90-29.86L271.90-29.86L271.90-29.86Q271.36-30.66 270.27-30.66L270.27-30.66L270.27-30.66Q269.18-30.66 268.26-30.24L268.26-30.24L268.26-30.24Q267.33-29.82 266.37-28.42L266.37-28.42L266.37-28.42Q264.00-25.22 262.66-17.79ZM292.35 0.19L292.35 0.19L292.35 0.19Q290.30 1.28 287.49 1.28L287.49 1.28L287.49 1.28Q284.67 1.28 283.14-0.16L283.14-0.16L283.14-0.16Q281.60-1.60 281.60-4.38L281.60-4.38L281.60-4.38Q281.60-7.17 283.55-9.89L283.55-9.89L283.55-9.89Q285.50-12.61 288.42-14.14L288.42-14.14L288.42-14.14Q291.33-15.68 293.38-16.58L293.38-16.58L289.34-25.86L289.34-25.86Q288.26-28.22 286.21-28.22L286.21-28.22L285.70-28.16L285.50-28.16L285.50-28.16Q285.89-30.40 288.51-32.13L288.51-32.13L288.51-32.13Q291.14-33.92 294.14-33.92L294.14-33.92L294.14-33.92Q299.01-33.92 301.25-29.06L301.25-29.06L301.76-28.03L304.51-21.25L304.51-21.25Q306.24-22.02 306.98-23.46L306.98-23.46L306.98-23.46Q307.71-24.90 307.71-27.74L307.71-27.74L307.71-27.74Q307.71-30.59 306.18-32.38L306.18-32.38L306.18-32.38Q308.61-33.92 311.81-33.92L311.81-33.92L311.81-33.92Q317.57-33.92 317.57-28.35L317.57-28.35L317.57-28.35Q317.57-22.27 309.95-18.75L309.95-18.75L306.11-16.96L309.57-8.06L309.57-8.06Q310.59-5.38 312.45-4.22L312.45-4.22L312.45-4.22Q313.22-3.71 314.11-3.65L314.11-3.65L314.11-3.65Q312.19-0.51 308.03 0.90L308.03 0.90L308.03 0.90Q306.75 1.28 305.02 1.28L305.02 1.28L305.02 1.28Q303.30 1.28 301.31 0.10L301.31 0.10L301.31 0.10Q299.33-1.09 298.62-2.94L298.62-2.94L295.10-12.10L295.10-12.10Q291.52-10.50 291.52-4.67L291.52-4.67L291.52-4.67Q291.52-1.98 292.35 0.19ZM320.32-6.40L320.32-6.40L320.32-6.40Q320.32-8.13 321.22-12.48L321.22-12.48L324.61-29.76L320.83-29.76L321.09-31.68L321.09-31.68Q328.77-33.98 336.19-39.62L336.19-39.62L339.26-39.62L337.73-32.64L342.72-32.64L342.14-29.76L337.22-29.76L333.95-12.48L333.95-12.48Q333.12-8.51 333.12-7.17L333.12-7.17L333.12-7.17Q333.12-4.10 335.81-3.46L335.81-3.46L335.81-3.46Q335.17-1.28 332.86 0L332.86 0L332.86 0Q330.56 1.28 327.30 1.28L327.30 1.28L327.30 1.28Q324.03 1.28 322.18-0.77L322.18-0.77L322.18-0.77Q320.32-2.82 320.32-6.40ZM355.65 0L341.70 0L349.82-42.24L363.90-42.24L355.65 0ZM370.75 0L363.39 0L374.98-42.24L388.35-42.24L391.30-18.11L403.20-42.24L414.40-42.24L415.55-10.62L415.55-10.62Q415.81-4.35 418.88-2.43L418.88-2.43L418.88-2.43Q418.18-1.15 416.13 0.06L416.13 0.06L416.13 0.06Q414.08 1.28 411.36 1.28L411.36 1.28L411.36 1.28Q408.64 1.28 407.04 0.51L407.04 0.51L407.04 0.51Q405.44-0.26 404.54-1.54L404.54-1.54L404.54-1.54Q402.94-3.84 402.94-8.26L402.94-8.26L402.94-28.03L390.34 0L382.40 0L377.92-28.74L370.75 0ZM447.55-20.61L460.48-21.76L460.48-21.76Q455.87-11.65 455.87 0.06L455.87 0.06L455.87 0.06Q454.14 1.28 451.62 1.28L451.62 1.28L451.62 1.28Q449.09 1.28 447.49 0.10L447.49 0.10L447.49 0.10Q445.89-1.09 445.57-2.30L445.57-2.30L445.57-2.30Q443.97-0.64 441.38 0.32L441.38 0.32L441.38 0.32Q438.78 1.28 436.03 1.28L436.03 1.28L436.03 1.28Q433.28 1.28 430.88 0.38L430.88 0.38L430.88 0.38Q428.48-0.51 426.62-2.50L426.62-2.50L426.62-2.50Q422.53-6.85 422.53-15.10L422.53-15.10L422.53-15.10Q422.53-27.90 429.38-35.58L429.38-35.58L429.38-35.58Q436.42-43.52 448.90-43.52L448.90-43.52L448.90-43.52Q457.54-43.52 460.61-39.04L460.61-39.04L460.61-39.04Q461.57-37.63 461.57-35.94L461.57-35.94L461.57-35.94Q461.57-34.24 460.83-32.80L460.83-32.80L460.83-32.80Q460.10-31.36 458.94-30.21L458.94-30.21L458.94-30.21Q456.19-27.65 452.80-27.65L452.80-27.65L452.80-27.65Q451.46-27.65 450.18-28.10L450.18-28.10L450.18-28.10Q450.43-30.02 450.43-32.26L450.43-32.26L450.43-32.26Q450.43-34.50 450.27-35.52L450.27-35.52L450.27-35.52Q450.11-36.54 449.73-37.38L449.73-37.38L449.73-37.38Q448.90-39.10 447.07-39.10L447.07-39.10L447.07-39.10Q445.25-39.10 443.23-37.15L443.23-37.15L443.23-37.15Q441.22-35.20 439.62-32L439.62-32L439.62-32Q436.10-24.83 436.10-16.19L436.10-16.19L436.10-16.19Q436.10-12.22 437.63-9.41L437.63-9.41L437.63-9.41Q439.30-6.34 442.24-6.34L442.24-6.34L442.24-6.34Q443.26-6.34 444.19-6.85L444.19-6.85L444.19-6.85Q445.12-7.36 445.50-7.74L445.50-7.74L447.55-20.61Z" fill="#ccc"></path></g></g><style>text {
  font-size: 64px;
  font-family: Arial Black;
  dominant-baseline: central;
  text-anchor: middle;
}</style></svg>