<svg width="574.0724609375px" height="122.021240234375px" xmlns="http://www.w3.org/2000/svg" viewBox="-37.03623046874998 13.9893798828125 574.0724609375 122.021240234375" style="background: none;" preserveAspectRatio="xMidYMid"><defs><filter id="editing-hover" x="-100%" y="-100%" width="300%" height="300%"><feFlood flood-color="#052b4a" result="flood"></feFlood><feComposite operator="in" in2="SourceAlpha" in="flood" result="shadow"></feComposite><feOffset dx="-4" dy="-4" in="SourceGraphic" result="offset-1"></feOffset><feOffset dx="4" dy="4" in="shadow" result="offset-2"></feOffset><feMerge><feMergeNode in="offset-2"></feMergeNode><feMergeNode in="offset-1"></feMergeNode></feMerge></filter></defs><g filter="url(#editing-hover)"><g transform="translate(45.96499693393707, 103.18218803405762)"><path d="M34.50-13.25L34.50-13.25L34.50-13.25Q36.16-12.03 36.16-9.44L36.16-9.44L36.16-9.44Q36.16-6.85 35.04-5.02L35.04-5.02L35.04-5.02Q33.92-3.20 31.74-1.79L31.74-1.79L31.74-1.79Q27.07 1.22 18.91 1.22L18.91 1.22L18.91 1.22Q10.75 1.22 6.30-3.04L6.30-3.04L6.30-3.04Q1.86-7.30 1.86-14.85L1.86-14.85L1.86-14.85Q1.86-25.54 7.42-33.66L7.42-33.66L7.42-33.66Q11.65-39.68 19.20-42.24L19.20-42.24L19.20-42.24Q23.10-43.52 26.94-43.52L26.94-43.52L26.94-43.52Q30.78-43.52 33.15-43.01L33.15-43.01L33.15-43.01Q35.52-42.50 37.31-41.47L37.31-41.47L37.31-41.47Q41.22-39.23 41.22-35.65L41.22-35.65L41.22-35.65Q41.22-32.38 38.14-29.95L38.14-29.95L38.14-29.95Q35.33-27.78 33.02-27.78L33.02-27.78L33.02-27.78Q30.72-27.78 29.76-28.10L29.76-28.10L29.76-28.10Q30.02-30.40 30.02-31.90L30.02-31.90L30.02-31.90Q30.02-33.41 29.95-34.50L29.95-34.50L29.95-34.50Q29.89-35.58 29.57-36.61L29.57-36.61L29.57-36.61Q28.93-38.98 26.98-38.98L26.98-38.98L26.98-38.98Q25.02-38.98 23.07-37.15L23.07-37.15L23.07-37.15Q21.12-35.33 19.46-32.26L19.46-32.26L19.46-32.26Q15.68-25.28 15.68-17.02L15.68-17.02L15.68-17.02Q15.68-13.06 17.92-10.78L17.92-10.78L17.92-10.78Q20.16-8.51 24.96-8.51L24.96-8.51L24.96-8.51Q28.54-8.51 31.94-10.88L31.94-10.88L31.94-10.88Q33.41-11.90 34.50-13.25ZM42.69-9.47L42.69-9.47L42.69-9.47Q42.69-11.97 43.33-15.17L43.33-15.17L48.51-42.24L62.66-42.24L57.54-14.98L57.54-14.98Q56.96-11.97 56.96-9.76L56.96-9.76L56.96-9.76Q56.96-7.55 57.89-6.40L57.89-6.40L57.89-6.40Q58.82-5.25 60.54-5.25L60.54-5.25L60.54-5.25Q62.27-5.25 63.36-5.70L63.36-5.70L63.36-5.70Q64.45-6.14 65.34-7.23L65.34-7.23L65.34-7.23Q67.07-9.41 68.16-14.98L68.16-14.98L73.34-42.24L83.01-42.24L77.89-15.04L77.89-15.04Q76.10-5.95 71.17-2.30L71.17-2.30L71.17-2.30Q66.37 1.28 56.90 1.28L56.90 1.28L56.90 1.28Q49.79 1.28 46.02-1.79L46.02-1.79L46.02-1.79Q42.69-4.48 42.69-9.47ZM125.82-26.56L125.82-26.56L125.82-26.56Q125.82 0.70 96.26 0.70L96.26 0.70L96.26 0.70Q91.52 0.70 83.71-0.45L83.71-0.45L90.88-38.27L90.88-38.27Q91.39-40.83 91.71-42.30L91.71-42.30L91.71-42.30Q101.44-43.01 105.76-43.01L105.76-43.01L105.76-43.01Q110.08-43.01 114.05-42.11L114.05-42.11L114.05-42.11Q118.02-41.22 120.64-39.23L120.64-39.23L120.64-39.23Q125.82-35.33 125.82-26.56ZM112.64-28.93L112.64-28.93L112.64-28.93Q112.64-38.46 105.79-38.46L105.79-38.46L105.15-38.46L105.15-38.46Q104.83-38.46 104.51-38.40L104.51-38.40L97.92-4.03L97.92-4.03Q98.18-3.90 98.43-3.90L98.43-3.90L98.94-3.90L98.94-3.90Q101.31-3.90 103.78-5.38L103.78-5.38L103.78-5.38Q106.24-6.85 108.16-9.86L108.16-9.86L108.16-9.86Q112.64-16.83 112.64-28.93ZM171.39-33.92L171.39-33.92L171.39-33.92Q166.21-33.92 162.43-35.65L162.43-35.65L160.38-25.28L172.74-25.28L172.74-25.28Q172.74-21.89 171.04-19.74L171.04-19.74L171.04-19.74Q169.34-17.60 166.27-17.60L166.27-17.60L166.27-17.60Q162.94-17.60 159.87-18.82L159.87-18.82L159.87-18.82Q159.23-19.07 159.17-19.14L159.17-19.14L155.52 0L141.57 0L149.70-42.24L178.24-42.24L178.24-42.24Q178.24-38.34 176.42-36.13L176.42-36.13L176.42-36.13Q174.59-33.92 171.39-33.92ZM190.14 1.28L190.14 1.28L190.14 1.28Q176.06 1.28 176.06-11.97L176.06-11.97L176.06-11.97Q176.06-21.38 181.25-27.46L181.25-27.46L181.25-27.46Q186.75-33.92 196.29-33.92L196.29-33.92L196.29-33.92Q203.20-33.92 206.72-30.72L206.72-30.72L206.72-30.72Q210.24-27.52 210.24-20.80L210.24-20.80L210.24-20.80Q210.24-10.56 204.74-4.61L204.74-4.61L204.74-4.61Q199.36 1.28 190.14 1.28ZM191.81-26.56L191.81-26.56L191.81-26.56Q191.04-24.83 190.43-22.24L190.43-22.24L190.43-22.24Q189.82-19.65 189.06-15.55L189.06-15.55L189.06-15.55Q188.29-11.46 188.29-6.40L188.29-6.40L188.29-6.40Q188.29-4.74 188.83-3.65L188.83-3.65L188.83-3.65Q189.38-2.56 190.85-2.56L190.85-2.56L190.85-2.56Q192.32-2.56 193.25-3.26L193.25-3.26L193.25-3.26Q194.18-3.97 194.88-5.63L194.88-5.63L194.88-5.63Q196.16-8.58 197.18-14.05L197.18-14.05L197.18-14.05Q198.21-19.52 198.30-21.89L198.30-21.89L198.30-21.89Q198.40-24.26 198.40-26.02L198.40-26.02L198.40-26.02Q198.40-27.78 197.89-28.93L197.89-28.93L197.89-28.93Q197.38-30.08 195.94-30.08L195.94-30.08L195.94-30.08Q194.50-30.08 193.54-29.18L193.54-29.18L193.54-29.18Q192.58-28.29 191.81-26.56ZM234.05-17.98L234.05-17.98L234.05-17.98Q236.35-22.08 236.35-26.24L236.35-26.24L236.35-26.24Q236.35-28.99 234.37-28.99L234.37-28.99L234.37-28.99Q232.83-28.99 231.23-26.37L231.23-26.37L231.23-26.37Q229.57-23.74 229.06-20.35L229.06-20.35L225.73 0L212.48 1.28L219.01-32.64L229.57-33.92L228.42-27.46L228.42-27.46Q231.55-33.92 238.59-33.92L238.59-33.92L238.59-33.92Q242.30-33.92 244.32-32L244.32-32L244.32-32Q246.34-30.08 246.34-26.14L246.34-26.14L246.34-26.14Q246.34-22.21 243.74-19.71L243.74-19.71L243.74-19.71Q241.15-17.22 236.74-17.22L236.74-17.22L236.74-17.22Q234.82-17.22 234.05-17.98ZM273.28-10.82L273.28-10.82L273.28-10.82Q274.88-9.73 274.88-7.33L274.88-7.33L274.88-7.33Q274.88-4.93 273.66-3.39L273.66-3.39L273.66-3.39Q272.45-1.86 270.46-0.83L270.46-0.83L270.46-0.83Q266.37 1.28 261.95 1.28L261.95 1.28L261.95 1.28Q257.54 1.28 254.94 0.32L254.94 0.32L254.94 0.32Q252.35-0.64 250.62-2.43L250.62-2.43L250.62-2.43Q247.23-5.82 247.23-12.03L247.23-12.03L247.23-12.03Q247.23-21.70 252.48-27.58L252.48-27.58L252.48-27.58Q258.11-33.92 267.90-33.92L267.90-33.92L267.90-33.92Q273.98-33.92 276.99-31.36L276.99-31.36L276.99-31.36Q279.23-29.44 279.23-26.30L279.23-26.30L279.23-26.30Q279.23-15.04 259.78-15.04L259.78-15.04L259.78-15.04Q259.52-13.38 259.52-11.97L259.52-11.97L259.52-11.97Q259.52-9.02 260.83-7.90L260.83-7.90L260.83-7.90Q262.14-6.78 264.58-6.78L264.58-6.78L264.58-6.78Q267.01-6.78 269.60-7.90L269.60-7.90L269.60-7.90Q272.19-9.02 273.28-10.82ZM260.22-17.79L260.22-17.79L260.22-17.79Q264.77-17.79 267.39-20.61L267.39-20.61L267.39-20.61Q270.02-23.30 270.02-27.58L270.02-27.58L270.02-27.58Q270.02-29.06 269.47-29.86L269.47-29.86L269.47-29.86Q268.93-30.66 267.84-30.66L267.84-30.66L267.84-30.66Q266.75-30.66 265.82-30.24L265.82-30.24L265.82-30.24Q264.90-29.82 263.94-28.42L263.94-28.42L263.94-28.42Q261.57-25.22 260.22-17.79ZM300.54-22.46L300.54-22.46L300.54-22.46Q301.44-24.83 301.44-26.88L301.44-26.88L301.44-26.88Q301.44-30.66 298.37-30.66L298.37-30.66L298.37-30.66Q296.77-30.66 295.46-29.22L295.46-29.22L295.46-29.22Q294.14-27.78 294.14-25.98L294.14-25.98L294.14-25.98Q294.14-24.70 295.17-23.68L295.17-23.68L295.17-23.68Q296.64-22.27 300.42-19.97L300.42-19.97L300.42-19.97Q304.19-17.66 305.63-15.78L305.63-15.78L305.63-15.78Q307.07-13.89 307.07-11.30L307.07-11.30L307.07-11.30Q307.07-8.70 305.82-6.34L305.82-6.34L305.82-6.34Q304.58-3.97 302.34-2.30L302.34-2.30L302.34-2.30Q297.54 1.28 289.86 1.28L289.86 1.28L289.86 1.28Q285.70 1.28 282.50-0.90L282.50-0.90L282.50-0.90Q279.30-3.01 279.30-5.50L279.30-5.50L279.30-5.50Q279.30-8 281.12-9.47L281.12-9.47L281.12-9.47Q282.94-10.94 285.63-10.94L285.63-10.94L285.63-10.94Q288.32-10.94 289.98-9.92L289.98-9.92L289.98-9.92Q289.15-7.81 289.15-6.40L289.15-6.40L289.15-6.40Q289.15-2.18 292.74-2.18L292.74-2.18L292.74-2.18Q294.27-2.18 295.30-3.14L295.30-3.14L295.30-3.14Q296.32-4.10 296.32-5.76L296.32-5.76L296.32-5.76Q296.32-9.02 290.82-12.48L290.82-12.48L290.82-12.48Q286.34-15.42 285.31-16.58L285.31-16.58L285.31-16.58Q283.58-18.62 283.58-21.18L283.58-21.18L283.58-21.18Q283.58-23.74 284.80-26.18L284.80-26.18L284.80-26.18Q286.02-28.61 288.26-30.34L288.26-30.34L288.26-30.34Q292.93-33.92 301.06-33.92L301.06-33.92L301.06-33.92Q305.22-33.92 307.68-32.26L307.68-32.26L307.68-32.26Q310.14-30.59 310.14-27.78L310.14-27.78L310.14-27.78Q310.14-24.96 308.45-23.36L308.45-23.36L308.45-23.36Q306.75-21.76 303.68-21.76L303.68-21.76L303.68-21.76Q301.57-21.76 300.54-22.46ZM313.54-6.40L313.54-6.40L313.54-6.40Q313.54-8.13 314.43-12.48L314.43-12.48L317.82-29.76L314.05-29.76L314.30-31.68L314.30-31.68Q321.98-33.98 329.41-39.62L329.41-39.62L332.48-39.62L330.94-32.64L335.94-32.64L335.36-29.76L330.43-29.76L327.17-12.48L327.17-12.48Q326.34-8.51 326.34-7.17L326.34-7.17L326.34-7.17Q326.34-4.10 329.02-3.46L329.02-3.46L329.02-3.46Q328.38-1.28 326.08 0L326.08 0L326.08 0Q323.78 1.28 320.51 1.28L320.51 1.28L320.51 1.28Q317.25 1.28 315.39-0.77L315.39-0.77L315.39-0.77Q313.54-2.82 313.54-6.40ZM355.65-17.98L355.65-17.98L355.65-17.98Q357.95-22.08 357.95-26.24L357.95-26.24L357.95-26.24Q357.95-28.99 355.97-28.99L355.97-28.99L355.97-28.99Q354.43-28.99 352.83-26.37L352.83-26.37L352.83-26.37Q351.17-23.74 350.66-20.35L350.66-20.35L347.33 0L334.08 1.28L340.61-32.64L351.17-33.92L350.02-27.46L350.02-27.46Q353.15-33.92 360.19-33.92L360.19-33.92L360.19-33.92Q363.90-33.92 365.92-32L365.92-32L365.92-32Q367.94-30.08 367.94-26.14L367.94-26.14L367.94-26.14Q367.94-22.21 365.34-19.71L365.34-19.71L365.34-19.71Q362.75-17.22 358.34-17.22L358.34-17.22L358.34-17.22Q356.42-17.22 355.65-17.98ZM389.31-7.23L389.31-7.23L389.31-7.23Q385.98-3.78 379.90-3.78L379.90-3.78L379.90-3.78Q372.29-3.78 370.69-9.34L370.69-9.34L370.69-9.34Q370.18-11.01 370.18-12.86L370.18-12.86L370.18-12.86Q370.18-14.72 370.56-16.64L370.56-16.64L373.57-32.64L386.56-33.92L383.04-15.30L383.04-15.30Q382.91-14.46 382.72-13.57L382.72-13.57L382.72-13.57Q382.53-12.67 382.53-11.74L382.53-11.74L382.53-11.74Q382.53-10.82 382.85-10.21L382.85-10.21L382.85-10.21Q383.17-9.60 383.62-9.22L383.62-9.22L383.62-9.22Q384.38-8.70 385.76-8.70L385.76-8.70L385.76-8.70Q387.14-8.70 388.32-10.37L388.32-10.37L388.32-10.37Q389.50-12.03 390.08-14.91L390.08-14.91L393.60-32.64L406.21-33.92L401.41-8.77L401.41-8.77Q399.04 3.52 394.18 8.38L394.18 8.38L394.18 8.38Q391.68 10.88 388.45 11.87L388.45 11.87L388.45 11.87Q385.22 12.86 381.06 12.86L381.06 12.86L381.06 12.86Q374.34 12.86 370.50 10.75L370.50 10.75L370.50 10.75Q366.66 8.64 366.66 5.12L366.66 5.12L366.66 5.12Q366.66 2.50 368.64 0.99L368.64 0.99L368.64 0.99Q370.62-0.51 373.70-0.51L373.70-0.51L373.70-0.51Q376.38-0.51 378.43 0.64L378.43 0.64L378.43 0.64Q379.65 1.34 380.22 2.24L380.22 2.24L380.22 2.24Q378.75 3.52 378.75 5.63L378.75 5.63L378.75 5.63Q378.75 8.45 381.31 8.45L381.31 8.45L381.31 8.45Q385.54 8.45 387.97-1.28L387.97-1.28L387.97-1.28Q388.67-4.16 389.31-7.23Z" fill="#ffd5af"></path></g></g><style>text {
  font-size: 64px;
  font-family: Arial Black;
  dominant-baseline: central;
  text-anchor: middle;
}</style></svg>