<svg height="512pt" viewBox="0 0 512 512" width="512pt" xmlns="http://www.w3.org/2000/svg"><path d="m504.40625 152.371094c0 65.332031-43.269531 120.550781-102.710938 138.570312-13.3125 4.039063-27.4375 6.207032-42.066406 6.207032-79.960937 0-144.777344-64.816407-144.777344-144.777344 0-79.960938 64.816407-144.777344 144.777344-144.777344 14.628906 0 28.753906 2.167969 42.066406 6.207031 59.441407 18.019531 102.710938 73.238281 102.710938 138.570313zm0 0" fill="#46b746"/><path d="m504.40625 152.371094c0 65.332031-43.269531 120.550781-102.710938 138.570312-59.4375-18.011718-102.71875-73.238281-102.71875-138.570312 0-65.332032 43.28125-120.5625 102.71875-138.570313 59.441407 18.019531 102.710938 73.238281 102.710938 138.570313zm0 0" fill="#5bce5b"/><path d="m275.164062 133.566406c7.867188-10.871094 12.515626-24.222656 12.515626-38.664062 0-36.484375-29.574219-66.058594-66.058594-66.058594h-116.039063c-36.484375 0-66.058593 29.574219-66.058593 66.058594 0 14.441406 4.648437 27.792968 12.515624 38.664062-25.867187 8.957032-44.445312 33.511719-44.445312 62.421875 0 36.480469 29.574219 66.054688 66.054688 66.054688h179.902343c36.484375 0 66.058594-29.574219 66.058594-66.054688 0-28.910156-18.582031-53.464843-44.445313-62.421875zm0 0" fill="#ffdb45"/><path d="m58.214844 195.988281c0-28.910156 18.578125-53.464843 44.441406-62.421875-7.863281-10.871094-12.511719-24.222656-12.511719-38.664062 0-36.484375 29.574219-66.058594 66.058594-66.058594h-50.625c-36.480469 0-66.054687 29.574219-66.054687 66.058594 0 14.441406 4.648437 27.792968 12.511718 38.664062-25.863281 8.957032-44.441406 33.511719-44.441406 62.421875 0 36.480469 29.574219 66.054688 66.054688 66.054688h50.621093c-36.480469.003906-66.054687-29.574219-66.054687-66.054688zm0 0" fill="#ffbd48"/><g fill="#ffdb45"><path d="m65.011719 446.957031c0 11.371094-9.21875 20.59375-20.589844 20.59375-11.375 0-20.59375-9.222656-20.59375-20.59375 0-11.375 9.21875-20.59375 20.59375-20.59375 11.371094 0 20.589844 9.21875 20.589844 20.59375zm0 0"/><path d="m450.417969 483.800781c0 11.371094-9.21875 20.59375-20.59375 20.59375-11.371094 0-20.59375-9.222656-20.59375-20.59375 0-11.375 9.222656-20.59375 20.59375-20.59375 11.375 0 20.59375 9.21875 20.59375 20.59375zm0 0"/><path d="m184.195312 483.800781c0 11.371094-9.222656 20.59375-20.59375 20.59375-11.375 0-20.59375-9.222656-20.59375-20.59375 0-11.375 9.21875-20.59375 20.59375-20.59375 11.371094 0 20.59375 9.21875 20.59375 20.59375zm0 0"/><path d="m267.5 396.335938c0 11.371093-9.222656 20.59375-20.59375 20.59375-11.375 0-20.59375-9.222657-20.59375-20.59375 0-11.375 9.21875-20.59375 20.59375-20.59375 11.371094 0 20.59375 9.21875 20.59375 20.59375zm0 0"/><path d="m303.945312 468.21875c0 11.371094-9.21875 20.589844-20.59375 20.589844-11.371093 0-20.589843-9.21875-20.589843-20.589844 0-11.375 9.21875-20.59375 20.589843-20.59375 11.375 0 20.59375 9.21875 20.59375 20.59375zm0 0"/></g><path d="m512 152.371094c0-26.722656-7.019531-53.015625-20.296875-76.035156-2.097656-3.632813-6.738281-4.878907-10.371094-2.78125-3.632812 2.09375-4.878906 6.738281-2.785156 10.371093 11.953125 20.710938 18.265625 44.382813 18.265625 68.445313 0 73.09375-57.464844 133.015625-129.589844 136.96875v-19.722656-.003907-117.242187c0-4.191406-3.398437-7.59375-7.59375-7.59375-4.191406 0-7.59375 3.402344-7.59375 7.59375v98.914062l-8.128906-8.132812c-2.96875-2.964844-7.773438-2.964844-10.738281 0-2.964844 2.964844-2.964844 7.773437 0 10.738281l18.871093 18.867187v16.578126c-25.742187-1.421876-50.488281-10.054688-71.46875-24.855469 27.28125-10.796875 46.632813-37.417969 46.632813-68.492188 0-28.1875-16.082031-53.628906-40.851563-65.945312 5.859376-10.742188 8.921876-22.726563 8.921876-35.140625 0-19.570313-7.6875-37.371094-20.183594-50.574219 24.074218-18.84375 53.78125-29.140625 84.539062-29.140625 38.421875 0 75.332032 16.269531 101.273438 44.640625 1.496094 1.636719 3.546875 2.46875 5.605468 2.46875 1.828126 0 3.664063-.65625 5.121094-1.988281 3.09375-2.832032 3.308594-7.632813.480469-10.730469-28.808594-31.507813-69.808594-49.578125-112.480469-49.578125-35.179687 0-69.121094 12.128906-96.269531 34.261719-11.875-8.195313-26.25-13.011719-41.738281-13.011719h-116.039063c-40.613281 0-73.652343 33.039062-73.652343 73.652344 0 12.414062 3.0625 24.398437 8.921874 35.140625-24.769531 12.316406-40.851562 37.757812-40.851562 65.945312 0 40.609375 33.039062 73.652344 73.652344 73.652344h23.421875c4.191406 0 7.59375-3.402344 7.59375-7.59375 0-4.195313-3.402344-7.59375-7.59375-7.59375h-23.421875c-32.238282 0-58.464844-26.226563-58.464844-58.464844 0-24.898437 15.808594-47.101562 39.335938-55.246093 2.269531-.785157 4.03125-2.597657 4.753906-4.890626.722656-2.292968.320312-4.789062-1.089844-6.734374-7.242188-10.015626-11.070312-21.84375-11.070312-34.214844 0-32.238282 26.226562-58.464844 58.464843-58.464844h116.039063c32.238281 0 58.464844 26.226562 58.464844 58.464844 0 12.371094-3.828126 24.199218-11.074219 34.214844-1.40625 1.945312-1.8125 4.441406-1.085938 6.734374.722657 2.292969 2.484375 4.105469 4.753907 4.890626 23.527343 8.144531 39.335937 30.347656 39.335937 55.246093 0 32.238281-26.226563 58.464844-58.464844 58.464844h-82.355469v-25.144531-.003906-74.917969c0-4.195313-3.402343-7.59375-7.59375-7.59375-4.195312 0-7.59375 3.398437-7.59375 7.59375v56.585937l-7.984374-7.984375c-2.964844-2.964843-7.773438-2.964843-10.738282 0-2.964844 2.964844-2.964844 7.773438 0 10.738281l18.722656 18.722657v22.003906h-28.558593c-4.195313 0-7.59375 3.398437-7.59375 7.589844 0 4.195312 3.398437 7.59375 7.59375 7.59375h28.558593v79.132812.003907 107.886718c-11.863281 3.324219-20.59375 14.226563-20.59375 27.136719 0 15.542969 12.644532 28.1875 28.1875 28.1875 15.542969 0 28.1875-12.644531 28.1875-28.1875 0-12.910156-8.730468-23.8125-20.59375-27.136719v-104.742187l24.410157-24.414063c2.96875-2.964844 2.96875-7.773437 0-10.738281-2.964844-2.964844-7.773438-2.964844-10.734375 0l-13.675782 13.675781v-60.800781h82.355469c2.78125 0 5.519531-.171875 8.21875-.472656 25.460938 21.339843 57.148438 33.730469 90.265625 35.378906v68.886719.007812 110.359375c0 4.191407 3.398438 7.59375 7.59375 7.59375h43.054688c3.324218 11.863281 14.230468 20.589844 27.140625 20.589844 15.539062 0 28.183593-12.644531 28.183593-28.183594 0-15.542969-12.644531-28.1875-28.183593-28.1875-12.910157 0-23.816407 8.730469-27.140625 20.59375h-35.460938v-99.625l24.601563-24.601562c2.964843-2.964844 2.964843-7.773438 0-10.738281-2.96875-2.964844-7.773438-2.964844-10.738281 0l-13.863282 13.863281v-50.554688c80.503906-3.96875 144.777344-70.710937 144.777344-152.179687zm-335.398438 331.429687c0 7.167969-5.832031 13-13 13-7.167968 0-13-5.832031-13-13s5.832032-13 13-13c7.167969 0 13 5.832031 13 13zm253.222657-13c7.167969 0 13 5.832031 13 13s-5.832031 13-13 13-13-5.832031-13-13 5.832031-13 13-13zm0 0"/><path d="m141.453125 446.957031v-159.964843c0-4.191407-3.402344-7.59375-7.59375-7.59375-4.195313 0-7.59375 3.402343-7.59375 7.59375v152.371093h-54.707031c-3.324219-11.863281-14.226563-20.59375-27.136719-20.59375-15.542969 0-28.1875 12.644531-28.1875 28.1875s12.644531 28.183594 28.1875 28.183594c12.910156 0 23.8125-8.726563 27.136719-20.589844h62.300781c4.191406 0 7.59375-3.402343 7.59375-7.59375zm-97.03125 13c-7.167969 0-13-5.832031-13-13s5.832031-13 13-13 12.996094 5.832031 12.996094 13-5.828125 13-12.996094 13zm0 0"/><path d="m330.269531 321.921875c-4.195312 0-7.59375 3.398437-7.59375 7.59375v59.226563h-48.632812c-3.324219-11.863282-14.226563-20.59375-27.136719-20.59375-15.542969 0-28.1875 12.644531-28.1875 28.1875 0 15.539062 12.644531 28.183593 28.1875 28.183593 12.910156 0 23.8125-8.726562 27.136719-20.589843h56.226562c4.191407 0 7.59375-3.402344 7.59375-7.59375v-66.820313c0-4.195313-3.402343-7.59375-7.59375-7.59375zm-83.363281 87.414063c-7.167969 0-13-5.832032-13-13 0-7.167969 5.832031-13 13-13s13 5.832031 13 13c0 7.167968-5.832031 13-13 13zm0 0"/><path d="m330.269531 417.089844c-4.195312 0-7.59375 3.398437-7.59375 7.59375v35.941406h-12.183593c-3.324219-11.863281-14.226563-20.59375-27.140626-20.59375-15.539062 0-28.183593 12.644531-28.183593 28.1875 0 15.539062 12.644531 28.183594 28.183593 28.183594 12.914063 0 23.816407-8.726563 27.140626-20.589844h19.777343c4.191407 0 7.59375-3.402344 7.59375-7.59375v-43.535156c0-4.195313-3.402343-7.59375-7.59375-7.59375zm-46.917969 64.128906c-7.167968 0-12.996093-5.832031-12.996093-13s5.828125-13 12.996093-13c7.167969 0 13 5.832031 13 13s-5.832031 13-13 13zm0 0"/></svg>