<svg height="448pt" viewBox="-25 0 448 448" width="448pt" xmlns="http://www.w3.org/2000/svg"><path d="m289.960938 304h22.039062c4.417969 0 8 3.582031 8 8v136h48v-136c0-4.417969 3.582031-8 8-8h22.039062l-54.039062-60.039062zm0 0"/><path d="m88 72v-61.726562l-75.535156 69.726562h67.535156c4.417969 0 8-3.582031 8-8zm0 0"/><path d="m352 192v-184c0-4.417969-3.582031-8-8-8h-240v72c0 13.253906-10.746094 24-24 24h-80v296c0 4.417969 3.582031 8 8 8h296v-80h-32c-3.160156 0-6.023438-1.859375-7.304688-4.746094-1.285156-2.886718-.753906-6.257812 1.359376-8.605468l72-80c1.554687-1.617188 3.703124-2.535157 5.945312-2.535157s4.390625.917969 5.945312 2.535157l2.054688 2.28125zm-296-48h32c4.417969 0 8 3.582031 8 8s-3.582031 8-8 8h-32c-4.417969 0-8-3.582031-8-8s3.582031-8 8-8zm224 192c4.417969 0 8 3.582031 8 8s-3.582031 8-8 8h-224c-4.417969 0-8-3.582031-8-8s3.582031-8 8-8zm-232-40c0-4.417969 3.582031-8 8-8h192c4.417969 0 8 3.582031 8 8s-3.582031 8-8 8h-192c-4.417969 0-8-3.582031-8-8zm232-40h-224c-4.417969 0-8-3.582031-8-8s3.582031-8 8-8h224c4.417969 0 8 3.582031 8 8s-3.582031 8-8 8zm16-48h-240c-4.417969 0-8-3.582031-8-8s3.582031-8 8-8h240c4.417969 0 8 3.582031 8 8s-3.582031 8-8 8zm0-48h-176c-4.417969 0-8-3.582031-8-8s3.582031-8 8-8h176c4.417969 0 8 3.582031 8 8s-3.582031 8-8 8zm0 0"/></svg>