<svg height="366pt" viewBox="0 0 366 366.10014" width="366pt" xmlns="http://www.w3.org/2000/svg"><path d="m264.75 69.699219c-15.105469-.050781-28.144531 10.578125-31.132812 25.382812-2.992188 14.808594 4.898437 29.664063 18.839843 35.480469 13.941407 5.8125 30.050781.964844 38.464844-11.578125 8.417969-12.546875 6.796875-29.289063-3.871094-39.984375-5.878906-5.972656-13.917969-9.324219-22.300781-9.300781zm0 0"/><path d="m365.25.800781-153.101562-.800781-202.796876 202.800781c-5.953124 5.933594-9.3007808 13.992188-9.3007808 22.398438s3.3476568 16.464843 9.3007808 22.402343l109.199219 109.199219c5.933594 5.953125 13.992188 9.300781 22.398438 9.300781s16.46875-3.347656 22.402343-9.300781l202.699219-202.902343zm-68.300781 132.800781c-17.816407 17.851563-46.738281 17.867188-64.578125.039063-17.839844-17.832031-17.839844-46.75 0-64.578125 17.839844-17.832031 46.761718-17.8125 64.578125.039062 8.585937 8.535157 13.410156 20.140626 13.410156 32.25 0 12.105469-4.824219 23.710938-13.410156 32.25zm0 0"/></svg>