<svg width="1880.225px" height="131.60498046875px" xmlns="http://www.w3.org/2000/svg" viewBox="-690.1125 9.197509765625 1880.225 131.60498046875" style="background: none;" preserveAspectRatio="xMidYMid"><defs><filter id="editing-golden" x="-100%" y="-100%" width="300%" height="300%"><feFlood flood-color="#4f563b" result="flood"></feFlood><feFlood flood-color="#aca730" result="flood-light"></feFlood><feComposite operator="in" in="flood" in2="SourceAlpha" result="flood-comp"></feComposite><feGaussianBlur in="flood-comp" stdDeviation="3" result="blur"></feGaussianBlur><feOffset in="blur" dy="3" result="offset-blur"></feOffset><feComponentTransfer in="offset-blur" result="comp-blur"><feFuncA type="linear" slope="0.7" intercept="-0.1"></feFuncA></feComponentTransfer><feSpecularLighting surfaceScale="200" specularConstant="20" specularExponent="1" lighting-color="#fff" in="blur" result="specular"><fePointLight x="-250" y="-250" z="3500"></fePointLight></feSpecularLighting><feComponentTransfer in="specular" result="inspecular"><feFuncA type="linear" slope="-1" intercept="1"></feFuncA></feComponentTransfer><feComposite operator="in" in="flood-light" in2="inspecular" result="inspecular2"></feComposite><feComposite operator="in" in="inspecular2" in2="SourceAlpha" result="light"></feComposite><feMerge><feMergeNode in="comp-blur"></feMergeNode><feMergeNode in="SourceGraphic"></feMergeNode><feMergeNode in="light"></feMergeNode></feMerge></filter></defs><g filter="url(#editing-golden)"><g transform="translate(-432.68498292565346, 107.34500122070312)"><path d="M38.12-48.13L38.12-35.80L26.95-35.80L26.95 0L11.55 0L11.55-35.80L0.39-35.80L0.39-48.13L38.12-48.13ZM41.58-38.50L56.98-38.50L56.98-10.09L59.37-10.09L59.37-10.09Q62.14-10.09 63.41-10.66L63.41-10.66L63.41-10.66Q64.68-11.24 64.68-13.32L64.68-13.32L64.68-38.50L80.08-38.50L80.08 0L72.38 0L67.91-4.39L67.91-4.39Q63.29 1.16 54.75 1.16L54.75 1.16L54.75 1.16Q47.89 1.16 44.74-1.77L44.74-1.77L44.74-1.77Q41.58-4.70 41.58-11.55L41.58-11.55L41.58-38.50ZM99.33-1.93L99.33-1.93L99.33-50.05L114.73-51.20L114.73-38.42L114.73-38.42Q117.66-39.66 122.39-39.66L122.39-39.66L122.39-39.66Q127.13-39.66 130.51-37.88L130.51-37.88L130.51-37.88Q133.90-36.11 135.67-33.03L135.67-33.03L135.67-33.03Q138.99-27.26 138.99-19.25L138.99-19.25L138.99-19.25Q138.99-8.39 133.98-3.62L133.98-3.62L133.98-3.62Q128.97 1.16 118.81 1.16L118.81 1.16L118.81 1.16Q108.65 1.16 99.33-1.93ZM114.73-25.56L114.73-25.56L114.73-10.09L117.12-10.09L117.12-10.09Q119.89-10.09 121.16-10.66L121.16-10.66L121.16-10.66Q122.43-11.24 122.43-13.32L122.43-13.32L122.43-28.41L120.04-28.41L120.04-28.41Q118.35-28.41 117.35-28.26L117.35-28.26L117.35-28.26Q116.35-28.11 115.58-27.45L115.58-27.45L115.58-27.45Q114.81-26.80 114.73-25.56ZM160.16-13.09L160.16-13.09L160.16-10.39L160.16-10.39Q162.47-10.16 164.78-10.16L164.78-10.16L164.78-10.16Q171.94-10.16 179.26-12.47L179.26-12.47L181.10-1.16L181.10-1.16Q172.48 1.16 164.01 1.16L164.01 1.16L164.01 1.16Q153.23 1.16 148.42-3.89L148.42-3.89L148.42-3.89Q143.61-8.93 143.61-19.25L143.61-19.25L143.61-19.25Q143.61-29.57 148.42-34.61L148.42-34.61L148.42-34.61Q153.23-39.66 163.97-39.66L163.97-39.66L163.97-39.66Q174.71-39.66 178.79-36.73L178.79-36.73L178.79-36.73Q182.88-33.80 182.88-25.79L182.88-25.79L182.88-25.79Q182.88-19.02 177.99-16.05L177.99-16.05L177.99-16.05Q173.10-13.09 160.16-13.09ZM160.16-25.18L160.16-25.18L160.16-22.02L163.32-22.02L163.32-22.02Q166.09-22.02 167.36-22.60L167.36-22.60L167.36-22.60Q168.63-23.18 168.63-25.26L168.63-25.26L168.63-28.41L165.47-28.41L165.47-28.41Q162.70-28.41 161.43-27.84L161.43-27.84L161.43-27.84Q160.16-27.26 160.16-25.18ZM226.77-51.20L226.77 0L219.06 0L215.75-3.23L215.75-3.23Q212.37 1.16 203.67 1.16L203.67 1.16L203.67 1.16Q198.97 1.16 195.58-0.62L195.58-0.62L195.58-0.62Q192.19-2.39 190.42-5.47L190.42-5.47L190.42-5.47Q187.11-11.24 187.11-19.25L187.11-19.25L187.11-19.25Q187.11-29.03 191.42-34.03L191.42-34.03L191.42-34.03Q193.04-35.96 195.89-37.23L195.89-37.23L195.89-37.23Q198.74-38.50 202.51-38.50L202.51-38.50L211.37-38.50L211.37-50.05L226.77-51.20ZM203.67-25.18L203.67-25.18L203.67-10.09L206.05-10.09L206.05-10.09Q208.67-10.09 209.94-10.59L209.94-10.59L209.94-10.59Q211.21-11.09 211.37-12.86L211.37-12.86L211.37-28.41L208.98-28.41L208.98-28.41Q206.21-28.41 204.94-27.84L204.94-27.84L204.94-27.84Q203.67-27.26 203.67-25.18ZM232.54 0L232.54-7.70L247.63-26.49L247.40-26.95L235.24-26.95L234.08-38.50L269.04-38.50L269.04-30.80L254.18-12.01L254.41-11.55L269.50-11.55L269.50 0L232.54 0ZM290.68 0L275.28 0L275.28-36.58L290.68-38.50L290.68 0ZM276.16-40.96L276.16-40.96L276.16-40.96Q274.43-42.27 274.43-45.74L274.43-45.74L274.43-45.74Q274.43-49.20 276.16-50.59L276.16-50.59L276.16-50.59Q277.89-51.98 283.01-51.98L283.01-51.98L283.01-51.98Q288.13-51.98 289.87-50.59L289.87-50.59L289.87-50.59Q291.60-49.20 291.60-45.74L291.60-45.74L291.60-45.74Q291.60-42.27 289.87-40.96L289.87-40.96L289.87-40.96Q288.13-39.66 283.01-39.66L283.01-39.66L283.01-39.66Q277.89-39.66 276.16-40.96ZM313.39-13.09L313.39-13.09L313.39-10.39L313.39-10.39Q315.70-10.16 318.01-10.16L318.01-10.16L318.01-10.16Q325.17-10.16 332.49-12.47L332.49-12.47L334.33-1.16L334.33-1.16Q325.71 1.16 317.24 1.16L317.24 1.16L317.24 1.16Q306.46 1.16 301.65-3.89L301.65-3.89L301.65-3.89Q296.84-8.93 296.84-19.25L296.84-19.25L296.84-19.25Q296.84-29.57 301.65-34.61L301.65-34.61L301.65-34.61Q306.46-39.66 317.20-39.66L317.20-39.66L317.20-39.66Q327.94-39.66 332.02-36.73L332.02-36.73L332.02-36.73Q336.11-33.80 336.11-25.79L336.11-25.79L336.11-25.79Q336.11-19.02 331.22-16.05L331.22-16.05L331.22-16.05Q326.33-13.09 313.39-13.09ZM313.39-25.18L313.39-25.18L313.39-22.02L316.55-22.02L316.55-22.02Q319.32-22.02 320.59-22.60L320.59-22.60L320.59-22.60Q321.86-23.18 321.86-25.26L321.86-25.26L321.86-28.41L318.70-28.41L318.70-28.41Q315.93-28.41 314.66-27.84L314.66-27.84L314.66-27.84Q313.39-27.26 313.39-25.18ZM353.43-1.93L353.43-1.93L353.43-50.05L368.83-51.20L368.83-38.42L368.83-38.42Q371.76-39.66 376.49-39.66L376.49-39.66L376.49-39.66Q381.23-39.66 384.62-37.88L384.62-37.88L384.62-37.88Q388.00-36.11 389.77-33.03L389.77-33.03L389.77-33.03Q393.09-27.26 393.09-19.25L393.09-19.25L393.09-19.25Q393.09-8.39 388.08-3.62L388.08-3.62L388.08-3.62Q383.08 1.16 372.91 1.16L372.91 1.16L372.91 1.16Q362.75 1.16 353.43-1.93ZM368.83-25.56L368.83-25.56L368.83-10.09L371.22-10.09L371.22-10.09Q373.99-10.09 375.26-10.66L375.26-10.66L375.26-10.66Q376.53-11.24 376.53-13.32L376.53-13.32L376.53-28.41L374.14-28.41L374.14-28.41Q372.45-28.41 371.45-28.26L371.45-28.26L371.45-28.26Q370.45-28.11 369.68-27.45L369.68-27.45L369.68-27.45Q368.91-26.80 368.83-25.56ZM417.49-39.66L417.49-39.66L417.49-39.66Q435.97-39.66 435.97-26.95L435.97-26.95L435.97 0L428.27 0L423.89-4.39L423.89-4.39Q421.65-1.77 417.80-0.31L417.80-0.31L417.80-0.31Q413.95 1.16 410.53 1.16L410.53 1.16L410.53 1.16Q407.10 1.16 405.02 0.62L405.02 0.62L405.02 0.62Q402.94 0.08 400.94-1.23L400.94-1.23L400.94-1.23Q396.55-4.00 396.55-11.55L396.55-11.55L396.55-11.55Q396.55-25.41 417.49-25.41L417.49-25.41L420.57-25.41L420.57-28.18L420.57-28.18Q418.11-28.34 416.49-28.34L416.49-28.34L416.49-28.34Q407.79-28.34 401.56-26.26L401.56-26.26L399.71-37.27L399.71-37.27Q407.41-39.66 417.49-39.66ZM412.10-13.24L412.10-13.24L412.10-10.09L415.26-10.09L415.26-10.09Q418.65-10.09 419.61-10.86L419.61-10.86L419.61-10.86Q420.57-11.63 420.57-12.86L420.57-12.86L420.57-16.48L417.42-16.48L417.42-16.48Q414.65-16.48 413.37-15.90L413.37-15.90L413.37-15.90Q412.10-15.32 412.10-13.24ZM446.37 12.71L435.20 12.71L435.20 2.69L439.21 1.93L439.21 1.93Q441.60 1.46 442.25 0.65L442.25 0.65L442.25 0.65Q442.90-0.15 442.90-1.16L442.90-1.16L442.90-36.58L458.30-38.50L458.30 0L458.30 0Q458.30 6.24 455.22 9.47L455.22 9.47L455.22 9.47Q452.14 12.71 446.37 12.71L446.37 12.71ZM443.79-40.96L443.79-40.96L443.79-40.96Q442.06-42.27 442.06-45.74L442.06-45.74L442.06-45.74Q442.06-49.20 443.79-50.59L443.79-50.59L443.79-50.59Q445.52-51.98 450.64-51.98L450.64-51.98L450.64-51.98Q455.76-51.98 457.50-50.59L457.50-50.59L457.50-50.59Q459.23-49.20 459.23-45.74L459.23-45.74L459.23-45.74Q459.23-42.27 457.50-40.96L457.50-40.96L457.50-40.96Q455.76-39.66 450.64-39.66L450.64-39.66L450.64-39.66Q445.52-39.66 443.79-40.96ZM481.02-13.09L481.02-13.09L481.02-10.39L481.02-10.39Q483.33-10.16 485.64-10.16L485.64-10.16L485.64-10.16Q492.80-10.16 500.12-12.47L500.12-12.47L501.96-1.16L501.96-1.16Q493.34 1.16 484.87 1.16L484.87 1.16L484.87 1.16Q474.09 1.16 469.28-3.89L469.28-3.89L469.28-3.89Q464.46-8.93 464.46-19.25L464.46-19.25L464.46-19.25Q464.46-29.57 469.28-34.61L469.28-34.61L469.28-34.61Q474.09-39.66 484.83-39.66L484.83-39.66L484.83-39.66Q495.57-39.66 499.65-36.73L499.65-36.73L499.65-36.73Q503.73-33.80 503.73-25.79L503.73-25.79L503.73-25.79Q503.73-19.02 498.84-16.05L498.84-16.05L498.84-16.05Q493.96-13.09 481.02-13.09ZM481.02-25.18L481.02-25.18L481.02-22.02L484.18-22.02L484.18-22.02Q486.95-22.02 488.22-22.60L488.22-22.60L488.22-22.60Q489.49-23.18 489.49-25.26L489.49-25.26L489.49-28.41L486.33-28.41L486.33-28.41Q483.56-28.41 482.29-27.84L482.29-27.84L482.29-27.84Q481.02-27.26 481.02-25.18ZM509.51 0L509.51-38.50L517.21-38.50L521.44-34.19L521.44-34.19Q525.99-38.35 532.84-39.66L532.84-39.66L533.76-25.10L533.76-25.10Q531.92-25.02 528.95-24.18L528.95-24.18L528.95-24.18Q525.99-23.33 524.91-22.02L524.91-22.02L524.91 0L509.51 0ZM556.63-39.66L556.63-39.66L556.63-39.66Q575.11-39.66 575.11-26.95L575.11-26.95L575.11 0L567.41 0L563.02-4.39L563.02-4.39Q560.79-1.77 556.94-0.31L556.94-0.31L556.94-0.31Q553.09 1.16 549.66 1.16L549.66 1.16L549.66 1.16Q546.24 1.16 544.16 0.62L544.16 0.62L544.16 0.62Q542.08 0.08 540.08-1.23L540.08-1.23L540.08-1.23Q535.69-4.00 535.69-11.55L535.69-11.55L535.69-11.55Q535.69-25.41 556.63-25.41L556.63-25.41L559.71-25.41L559.71-28.18L559.71-28.18Q557.25-28.34 555.63-28.34L555.63-28.34L555.63-28.34Q546.93-28.34 540.69-26.26L540.69-26.26L538.85-37.27L538.85-37.27Q546.55-39.66 556.63-39.66ZM551.24-13.24L551.24-13.24L551.24-10.09L554.40-10.09L554.40-10.09Q557.79-10.09 558.75-10.86L558.75-10.86L558.75-10.86Q559.71-11.63 559.71-12.86L559.71-12.86L559.71-16.48L556.56-16.48L556.56-16.48Q553.78-16.48 552.51-15.90L552.51-15.90L552.51-15.90Q551.24-15.32 551.24-13.24ZM582.04-38.50L589.74-38.50L593.59-34.65L593.59-34.65Q600.75-39.66 608.99-39.66L608.99-39.66L608.99-39.66Q614.38-39.66 617.46-37.31L617.46-37.31L617.46-37.31Q620.54-34.96 620.54-30.80L620.54-30.80L620.54 0L605.14 0L605.14-26.95L602.76-26.95L602.76-26.95Q600.14-26.95 598.79-26.37L598.79-26.37L598.79-26.37Q597.44-25.79 597.44-24.02L597.44-24.02L597.44 0L582.04 0L582.04-38.50ZM666.36 0L649.73 0L643.80-15.25L643.26-15.25L643.26 0L627.86 0L627.86-50.05L643.26-51.20L643.26-25.79L643.80-25.79L649.34-38.50L665.97-38.50L657.04-20.17L666.36 0ZM686.38 0L670.98 0L670.98-36.58L686.38-38.50L686.38 0ZM671.86-40.96L671.86-40.96L671.86-40.96Q670.13-42.27 670.13-45.74L670.13-45.74L670.13-45.74Q670.13-49.20 671.86-50.59L671.86-50.59L671.86-50.59Q673.60-51.98 678.72-51.98L678.72-51.98L678.72-51.98Q683.84-51.98 685.57-50.59L685.57-50.59L685.57-50.59Q687.30-49.20 687.30-45.74L687.30-45.74L687.30-45.74Q687.30-42.27 685.57-40.96L685.57-40.96L685.57-40.96Q683.84-39.66 678.72-39.66L678.72-39.66L678.72-39.66Q673.60-39.66 671.86-40.96ZM709.09-13.09L709.09-13.09L709.09-10.39L709.09-10.39Q711.40-10.16 713.71-10.16L713.71-10.16L713.71-10.16Q720.87-10.16 728.19-12.47L728.19-12.47L730.04-1.16L730.04-1.16Q721.41 1.16 712.94 1.16L712.94 1.16L712.94 1.16Q702.16 1.16 697.35-3.89L697.35-3.89L697.35-3.89Q692.54-8.93 692.54-19.25L692.54-19.25L692.54-19.25Q692.54-29.57 697.35-34.61L697.35-34.61L697.35-34.61Q702.16-39.66 712.90-39.66L712.90-39.66L712.90-39.66Q723.65-39.66 727.73-36.73L727.73-36.73L727.73-36.73Q731.81-33.80 731.81-25.79L731.81-25.79L731.81-25.79Q731.81-19.02 726.92-16.05L726.92-16.05L726.92-16.05Q722.03-13.09 709.09-13.09ZM709.09-25.18L709.09-25.18L709.09-22.02L712.25-22.02L712.25-22.02Q715.02-22.02 716.29-22.60L716.29-22.60L716.29-22.60Q717.56-23.18 717.56-25.26L717.56-25.26L717.56-28.41L714.41-28.41L714.41-28.41Q711.63-28.41 710.36-27.84L710.36-27.84L710.36-27.84Q709.09-27.26 709.09-25.18ZM749.13-50.05L764.53-51.20L764.53-11.01L764.53-11.01Q767.00-10.55 768.31-10.47L768.31-10.47L767.61 0.85L767.61 0.85Q757.76 0.85 754.60-0.31L754.60-0.31L754.60-0.31Q750.67-1.77 749.75-4.00L749.75-4.00L749.75-4.00Q749.13-5.39 749.13-7.24L749.13-7.24L749.13-50.05ZM776.20-3.89L776.20-3.89L776.20-3.89Q771.39-8.93 771.39-19.25L771.39-19.25L771.39-19.25Q771.39-29.57 776.20-34.61L776.20-34.61L776.20-34.61Q781.01-39.66 791.79-39.66L791.79-39.66L791.79-39.66Q802.57-39.66 807.38-34.61L807.38-34.61L807.38-34.61Q812.20-29.57 812.20-19.25L812.20-19.25L812.20-19.25Q812.20-8.93 807.38-3.89L807.38-3.89L807.38-3.89Q802.57 1.16 791.79 1.16L791.79 1.16L791.79 1.16Q781.01 1.16 776.20-3.89ZM787.94-25.18L787.94-25.18L787.94-10.09L790.33-10.09L790.33-10.09Q793.10-10.09 794.37-10.66L794.37-10.66L794.37-10.66Q795.64-11.24 795.64-13.32L795.64-13.32L795.64-28.41L793.25-28.41L793.25-28.41Q790.48-28.41 789.21-27.84L789.21-27.84L789.21-27.84Q787.94-27.26 787.94-25.18ZM816.28 10.39L816.28 10.39L818.28-1.08L818.28-1.08Q824.82 1.16 833.60 1.16L833.60 1.16L833.60 1.16Q836.22 1.16 837.30 1.00L837.30 1.00L837.30-1.69L837.30-1.69Q830.44-1.69 828.33-2.27L828.33-2.27L828.33-2.27Q826.21-2.85 825.56-3.43L825.56-3.43L825.56-3.43Q824.90-4.00 824.79-4.39L824.79-4.39L824.79-4.39Q824.67-4.77 824.67-5.47L824.67-5.47L826.98-12.09L826.98-12.09Q821.44-13.09 818.55-16.25L818.55-16.25L818.55-16.25Q815.66-19.40 815.66-26.14L815.66-26.14L815.66-26.14Q815.66-32.88 820.20-36.27L820.20-36.27L820.20-36.27Q824.75-39.66 834.99-39.66L834.99-39.66L834.99-39.66Q838.68-39.66 841.53-39.19L841.53-39.19L848.23-44.35L856.32-36.58L851.93-31.42L851.93-31.42Q852.93-28.72 852.93-24.49L852.93-24.49L852.93-24.49Q852.93-18.40 849.89-15.44L849.89-15.44L849.89-15.44Q846.85-12.47 839.07-11.86L839.07-11.86L838.76-10.01L838.76-10.01Q847.08-9.55 850.50-7.51L850.50-7.51L850.50-7.51Q853.93-5.47 853.93 0L853.93 0L853.93 0Q853.93 9.32 844.92 11.55L844.92 11.55L844.92 11.55Q840.45 12.71 832.87 12.71L832.87 12.71L832.87 12.71Q825.29 12.71 816.28 10.39ZM830.14-26.18L830.14-26.18L830.14-21.18L832.52-21.18L832.52-21.18Q835.30-21.18 836.57-21.75L836.57-21.75L836.57-21.75Q837.84-22.33 837.84-24.41L837.84-24.41L837.84-29.41L835.45-29.41L835.45-29.41Q832.68-29.41 831.41-28.84L831.41-28.84L831.41-28.84Q830.14-28.26 830.14-26.18ZM862.90-3.89L862.90-3.89L862.90-3.89Q858.09-8.93 858.09-19.25L858.09-19.25L858.09-19.25Q858.09-29.57 862.90-34.61L862.90-34.61L862.90-34.61Q867.71-39.66 878.49-39.66L878.49-39.66L878.49-39.66Q889.27-39.66 894.09-34.61L894.09-34.61L894.09-34.61Q898.90-29.57 898.90-19.25L898.90-19.25L898.90-19.25Q898.90-8.93 894.09-3.89L894.09-3.89L894.09-3.89Q889.27 1.16 878.49 1.16L878.49 1.16L878.49 1.16Q867.71 1.16 862.90-3.89ZM874.64-25.18L874.64-25.18L874.64-10.09L877.03-10.09L877.03-10.09Q879.80-10.09 881.07-10.66L881.07-10.66L881.07-10.66Q882.34-11.24 882.34-13.32L882.34-13.32L882.34-28.41L879.96-28.41L879.96-28.41Q877.18-28.41 875.91-27.84L875.91-27.84L875.91-27.84Q874.64-27.26 874.64-25.18ZM914.68 0L914.68-7.70L929.77-26.49L929.54-26.95L917.38-26.95L916.22-38.50L951.18-38.50L951.18-30.80L936.32-12.01L936.55-11.55L951.64-11.55L951.64 0L914.68 0ZM968.97-38.50L976.67-38.50L980.52-34.65L980.52-34.65Q987.68-39.66 995.92-39.66L995.92-39.66L995.92-39.66Q1001.31-39.66 1004.39-37.31L1004.39-37.31L1004.39-37.31Q1007.47-34.96 1007.47-30.80L1007.47-30.80L1007.47 0L992.07 0L992.07-26.95L989.68-26.95L989.68-26.95Q987.06-26.95 985.72-26.37L985.72-26.37L985.72-26.37Q984.37-25.79 984.37-24.02L984.37-24.02L984.37 0L968.97 0L968.97-38.50ZM1033.03-39.66L1033.03-39.66L1033.03-39.66Q1051.51-39.66 1051.51-26.95L1051.51-26.95L1051.51 0L1043.81 0L1039.42-4.39L1039.42-4.39Q1037.19-1.77 1033.34-0.31L1033.34-0.31L1033.34-0.31Q1029.49 1.16 1026.06 1.16L1026.06 1.16L1026.06 1.16Q1022.64 1.16 1020.56 0.62L1020.56 0.62L1020.56 0.62Q1018.48 0.08 1016.48-1.23L1016.48-1.23L1016.48-1.23Q1012.09-4.00 1012.09-11.55L1012.09-11.55L1012.09-11.55Q1012.09-25.41 1033.03-25.41L1033.03-25.41L1036.11-25.41L1036.11-28.18L1036.11-28.18Q1033.65-28.34 1032.03-28.34L1032.03-28.34L1032.03-28.34Q1023.33-28.34 1017.09-26.26L1017.09-26.26L1015.25-37.27L1015.25-37.27Q1022.94-39.66 1033.03-39.66ZM1027.64-13.24L1027.64-13.24L1027.64-10.09L1030.80-10.09L1030.80-10.09Q1034.19-10.09 1035.15-10.86L1035.15-10.86L1035.15-10.86Q1036.11-11.63 1036.11-12.86L1036.11-12.86L1036.11-16.48L1032.95-16.48L1032.95-16.48Q1030.18-16.48 1028.91-15.90L1028.91-15.90L1028.91-15.90Q1027.64-15.32 1027.64-13.24ZM1056.52 0L1056.52-7.70L1071.61-26.49L1071.38-26.95L1059.21-26.95L1058.06-38.50L1093.02-38.50L1093.02-30.80L1078.15-12.01L1078.38-11.55L1093.48-11.55L1093.48 0L1056.52 0ZM1122.35 0L1104.18 0L1096.48-38.50L1111.57-38.50L1114.73-15.63L1115.58-15.63L1120.43-38.50L1131.98-38.50L1136.29-15.63L1137.14-15.63L1140.83-38.50L1155.92-38.50L1148.22 0L1129.28 0L1126.28-16.55L1125.66-16.55L1122.35 0ZM1179.10-39.66L1179.10-39.66L1179.10-39.66Q1197.58-39.66 1197.58-26.95L1197.58-26.95L1197.58 0L1189.88 0L1185.49-4.39L1185.49-4.39Q1183.26-1.77 1179.41-0.31L1179.41-0.31L1179.41-0.31Q1175.56 1.16 1172.13 1.16L1172.13 1.16L1172.13 1.16Q1168.71 1.16 1166.63 0.62L1166.63 0.62L1166.63 0.62Q1164.55 0.08 1162.55-1.23L1162.55-1.23L1162.55-1.23Q1158.16-4.00 1158.16-11.55L1158.16-11.55L1158.16-11.55Q1158.16-25.41 1179.10-25.41L1179.10-25.41L1182.18-25.41L1182.18-28.18L1182.18-28.18Q1179.72-28.34 1178.10-28.34L1178.10-28.34L1178.10-28.34Q1169.40-28.34 1163.16-26.26L1163.16-26.26L1161.31-37.27L1161.31-37.27Q1169.01-39.66 1179.10-39.66ZM1173.71-13.24L1173.71-13.24L1173.71-10.09L1176.87-10.09L1176.87-10.09Q1180.26-10.09 1181.22-10.86L1181.22-10.86L1181.22-10.86Q1182.18-11.63 1182.18-12.86L1182.18-12.86L1182.18-16.48L1179.02-16.48L1179.02-16.48Q1176.25-16.48 1174.98-15.90L1174.98-15.90L1174.98-15.90Q1173.71-15.32 1173.71-13.24ZM1234.31-39.66L1234.31-39.66L1234.31-39.66Q1252.79-39.66 1252.79-26.95L1252.79-26.95L1252.79 0L1245.09 0L1240.70-4.39L1240.70-4.39Q1238.47-1.77 1234.62-0.31L1234.62-0.31L1234.62-0.31Q1230.77 1.16 1227.34 1.16L1227.34 1.16L1227.34 1.16Q1223.91 1.16 1221.84 0.62L1221.84 0.62L1221.84 0.62Q1219.76 0.08 1217.76-1.23L1217.76-1.23L1217.76-1.23Q1213.37-4.00 1213.37-11.55L1213.37-11.55L1213.37-11.55Q1213.37-25.41 1234.31-25.41L1234.31-25.41L1237.39-25.41L1237.39-28.18L1237.39-28.18Q1234.93-28.34 1233.31-28.34L1233.31-28.34L1233.31-28.34Q1224.61-28.34 1218.37-26.26L1218.37-26.26L1216.52-37.27L1216.52-37.27Q1224.22-39.66 1234.31-39.66ZM1228.92-13.24L1228.92-13.24L1228.92-10.09L1232.08-10.09L1232.08-10.09Q1235.46-10.09 1236.43-10.86L1236.43-10.86L1236.43-10.86Q1237.39-11.63 1237.39-12.86L1237.39-12.86L1237.39-16.48L1234.23-16.48L1234.23-16.48Q1231.46-16.48 1230.19-15.90L1230.19-15.90L1230.19-15.90Q1228.92-15.32 1228.92-13.24ZM1259.72 12.71L1259.72-38.50L1267.42-38.50L1270.27-34.65L1270.27-34.65Q1273.66-39.66 1282.82-39.66L1282.82-39.66L1282.82-39.66Q1287.52-39.66 1290.91-37.88L1290.91-37.88L1290.91-37.88Q1294.29-36.11 1296.06-33.03L1296.06-33.03L1296.06-33.03Q1299.38-27.26 1299.38-19.25L1299.38-19.25L1299.38-19.25Q1299.38-9.47 1295.14-4.47L1295.14-4.47L1295.14-4.47Q1293.45-2.54 1290.60-1.27L1290.60-1.27L1290.60-1.27Q1287.75 0 1283.98 0L1283.98 0L1275.12 0L1275.12 11.55L1259.72 12.71ZM1275.12-25.56L1275.12-25.56L1275.12-10.09L1277.51-10.09L1277.51-10.09Q1280.28-10.09 1281.55-10.66L1281.55-10.66L1281.55-10.66Q1282.82-11.24 1282.82-13.32L1282.82-13.32L1282.82-28.41L1280.43-28.41L1280.43-28.41Q1278.74-28.41 1277.74-28.26L1277.74-28.26L1277.74-28.26Q1276.74-28.11 1275.97-27.45L1275.97-27.45L1275.97-27.45Q1275.20-26.80 1275.12-25.56ZM1344.04 0L1327.40 0L1321.47-15.25L1320.94-15.25L1320.94 0L1305.54 0L1305.54-50.05L1320.94-51.20L1320.94-25.79L1321.47-25.79L1327.02-38.50L1343.65-38.50L1334.72-20.17L1344.04 0ZM1364.06 0L1348.65 0L1348.65-36.58L1364.06-38.50L1364.06 0ZM1349.54-40.96L1349.54-40.96L1349.54-40.96Q1347.81-42.27 1347.81-45.74L1347.81-45.74L1347.81-45.74Q1347.81-49.20 1349.54-50.59L1349.54-50.59L1349.54-50.59Q1351.27-51.98 1356.39-51.98L1356.39-51.98L1356.39-51.98Q1361.51-51.98 1363.25-50.59L1363.25-50.59L1363.25-50.59Q1364.98-49.20 1364.98-45.74L1364.98-45.74L1364.98-45.74Q1364.98-42.27 1363.25-40.96L1363.25-40.96L1363.25-40.96Q1361.51-39.66 1356.39-39.66L1356.39-39.66L1356.39-39.66Q1351.27-39.66 1349.54-40.96Z" fill="#e0dcb8"></path></g></g><style>text {
  font-size: 64px;
  font-family: Arial Black;
  dominant-baseline: central;
  text-anchor: middle;
}</style></svg>