<?xml version="1.0" encoding="utf-8"?>
<!-- Generator: Adobe Illustrator 25.4.1, SVG Export Plug-In . SVG Version: 6.00 Build 0)  -->
<svg version="1.1" id="Warstwa_1" xmlns="http://www.w3.org/2000/svg" xmlns:xlink="http://www.w3.org/1999/xlink" x="0px" y="0px"
	 viewBox="0 0 512 512" style="enable-background:new 0 0 512 512;" xml:space="preserve">
<path d="M260.6,393.5h-7.7c-6.6,0-12-5.4-12-12v-254c0-6.6,5.4-12,12-12h7.7c6.6,0,12,5.4,12,12v254
	C272.6,388.1,267.3,393.5,260.6,393.5z"/>
<path d="M497,209.6h-9.8L417.5,89.8h9.6c8.3,0,15-6.7,15-15V15c0-8.3-6.7-15-15-15h-59.9c-8.3,0-15,6.7-15,15v16.3H159.7V15
	c0-8.3-6.7-15-15-15H84.8c-8.3,0-15,6.7-15,15v59.9c0,8.3,6.7,15,15,15h7.9L23.6,209.6H15c-8.3,0-15,6.7-15,15v59.9
	c0,8.3,6.7,15,15,15h8.6l70.3,121.8h-9.1c-8.3,0-15,6.7-15,15V496c0,8.3,6.7,15,15,15h59.9c8.3,0,15-6.7,15-15v-18.3h192.6V496
	c0,8.3,6.7,15,15,15h59.9c8.3,0,15-6.7,15-15v-59.9c0-8.3-6.7-15-15-15h-10.1l70.3-121.8h9.6c8.3,0,15-6.7,15-15v-59.9
	C512,216.3,505.3,209.6,497,209.6z M482.1,239.5v29.9h-29.9v-29.9H482.1z M382.3,29.9h29.9v29.9h-29.9V29.9z M99.8,29.9h29.9v29.9
	H99.8V29.9z M29.9,269.5v-29.9h29.9v29.9H29.9z M129.7,481.1H99.8v-29.9h29.9V481.1z M412.2,481.1h-29.9v-29.9h29.9V481.1z
	 M382.5,421.2h-15.2c-8.3,0-15,6.7-15,15v11.7H159.7v-11.7c0-8.3-6.7-15-15-15h-16.2L58.2,299.4h16.7c8.3,0,15-6.7,15-15v-59.9
	c0-8.3-6.7-15-15-15H58.2l69.1-119.8h17.4c8.3,0,15-6.7,15-15V61.2h192.6v13.7c0,8.3,6.7,15,15,15h15.6l69.7,119.8h-15.4
	c-8.3,0-15,6.7-15,15v59.9c0,8.3,6.7,15,15,15h15.7L382.5,421.2z"/>
<path d="M395.8,250.6v7.7c0,6.6-5.4,12-12,12h-254c-6.6,0-12-5.4-12-12v-7.7c0-6.6,5.4-12,12-12h254
	C390.4,238.6,395.8,243.9,395.8,250.6z"/>
</svg>
